<svg width="39" height="39" viewBox="0 0 39 39" fill="none" xmlns="http://www.w3.org/2000/svg">
<rect width="39" height="39" rx="3" fill="white"/>
<g clip-path="url(#clip0)">
<path d="M12.2662 16.765C12.7341 15.3494 13.6371 14.1178 14.8463 13.2458C16.0556 12.3738 17.5094 11.9059 19.0002 11.909C20.6902 11.909 22.2182 12.509 23.4182 13.491L26.9102 10C24.7822 8.145 22.0552 7 19.0002 7C14.2702 7 10.1982 9.698 8.24023 13.65L12.2662 16.765Z" fill="#EA4335"/>
<path d="M23.0398 25.0129C21.9498 25.7159 20.5658 26.0909 18.9998 26.0909C17.5149 26.094 16.0666 25.6299 14.8601 24.7643C13.6535 23.8987 12.7498 22.6755 12.2768 21.2679L8.23682 24.3349C9.22806 26.3412 10.7621 28.0293 12.6646 29.2075C14.5672 30.3857 16.762 31.0066 18.9998 30.9999C21.9328 30.9999 24.7348 29.9569 26.8338 27.9999L23.0408 25.0129H23.0398Z" fill="#34A853"/>
<path d="M26.834 28C29.029 25.952 30.454 22.904 30.454 19C30.454 18.29 30.345 17.527 30.182 16.818H19V21.455H25.436C25.119 23.014 24.266 24.221 23.041 25.013L26.834 28Z" fill="#4A90E2"/>
<path d="M12.2771 21.268C12.0325 20.5369 11.9082 19.771 11.9091 19C11.9091 18.218 12.0341 17.467 12.2661 16.765L8.24012 13.65C7.41649 15.3127 6.99192 17.1445 7.00012 19C7.00012 20.92 7.44512 22.73 8.23712 24.335L12.2771 21.268Z" fill="#FBBC05"/>
</g>
<defs>
<clipPath id="clip0">
<rect width="24" height="24" fill="white" transform="translate(7 7)"/>
</clipPath>
</defs>
</svg>
