<svg width="17" height="15" viewBox="0 0 17 15" fill="none" xmlns="http://www.w3.org/2000/svg">
<path d="M8.50065 3.54167V0.375H0.583984V14.625H16.4173V3.54167H8.50065ZM3.75065 13.0417H2.16732V11.4583H3.75065V13.0417ZM3.75065 9.875H2.16732V8.29167H3.75065V9.875ZM3.75065 6.70833H2.16732V5.125H3.75065V6.70833ZM3.75065 3.54167H2.16732V1.95833H3.75065V3.54167ZM6.91732 13.0417H5.33398V11.4583H6.91732V13.0417ZM6.91732 9.875H5.33398V8.29167H6.91732V9.875ZM6.91732 6.70833H5.33398V5.125H6.91732V6.70833ZM6.91732 3.54167H5.33398V1.95833H6.91732V3.54167ZM14.834 13.0417H8.50065V11.4583H10.084V9.875H8.50065V8.29167H10.084V6.70833H8.50065V5.125H14.834V13.0417ZM13.2507 6.70833H11.6673V8.29167H13.2507V6.70833ZM13.2507 9.875H11.6673V11.4583H13.2507V9.875Z" fill="#444444"/>
</svg>
