<svg width="37" height="27" viewBox="0 0 37 27" fill="none" xmlns="http://www.w3.org/2000/svg">
<path d="M0 0.9375V3.25H21.9688V20.5938H14.8509C14.3352 18.6062 12.5476 17.125 10.4062 17.125C8.26488 17.125 6.47731 18.6062 5.96163 20.5938H4.625V14.8125H2.3125V22.9062H5.96163C6.47731 24.8938 8.26488 26.375 10.4062 26.375C12.5476 26.375 14.3352 24.8938 14.8509 22.9062H24.4616C24.9773 24.8938 26.7649 26.375 28.9062 26.375C31.0476 26.375 32.8352 24.8938 33.3509 22.9062H37V13.4759L36.9272 13.2943L34.6147 6.35684L34.3638 5.5625H24.2812V0.9375H0ZM1.15625 5.5625V7.875H11.5625V5.5625H1.15625ZM24.2812 7.875H32.6999L34.6875 13.8008V20.5938H33.3509C32.8352 18.6062 31.0476 17.125 28.9062 17.125C26.7649 17.125 24.9773 18.6062 24.4616 20.5938H24.2812V7.875ZM2.3125 10.1875V12.5H9.25V10.1875H2.3125ZM10.4062 19.4375C11.6978 19.4375 12.7188 20.4585 12.7188 21.75C12.7188 23.0415 11.6978 24.0625 10.4062 24.0625C9.11472 24.0625 8.09375 23.0415 8.09375 21.75C8.09375 20.4585 9.11472 19.4375 10.4062 19.4375ZM28.9062 19.4375C30.1978 19.4375 31.2188 20.4585 31.2188 21.75C31.2188 23.0415 30.1978 24.0625 28.9062 24.0625C27.6147 24.0625 26.5938 23.0415 26.5938 21.75C26.5938 20.4585 27.6147 19.4375 28.9062 19.4375Z" fill="#D80000"/>
</svg>
