<svg width="23" height="23" viewBox="0 0 23 23" fill="none" xmlns="http://www.w3.org/2000/svg">
<path fill-rule="evenodd" clip-rule="evenodd" d="M10.9169 0.065251C10.5184 0.172351 10.3019 0.329473 9.59012 1.02825C9.12362 1.48622 8.87452 1.69881 8.78123 1.71849C8.68911 1.73795 8.40443 1.68132 7.88247 1.53984C7.02159 1.30645 6.63449 1.25863 6.28092 1.342C5.70265 1.4784 5.17117 1.88653 4.93138 2.37844C4.86536 2.51381 4.71702 2.97798 4.60167 3.40998C4.48635 3.84197 4.36318 4.24048 4.32804 4.29558C4.23227 4.44565 4.08613 4.50462 3.29877 4.71086C2.28636 4.97603 1.98667 5.14047 1.62757 5.62779C1.1834 6.23053 1.15522 6.75982 1.49972 8.03127C1.63413 8.52731 1.70059 8.85229 1.68248 8.92461C1.6668 8.98712 1.36679 9.33476 1.01587 9.69723C0.657035 10.0678 0.324358 10.4552 0.255692 10.5825C0.0214742 11.0166 -0.0584708 11.5459 0.0434939 11.988C0.14802 12.4416 0.302877 12.6659 1.00899 13.3863C1.48102 13.8679 1.70068 14.1245 1.72059 14.2178C1.74032 14.3103 1.6845 14.5919 1.54227 15.1166C1.30891 15.9776 1.26109 16.3647 1.34445 16.7184C1.48084 17.2967 1.88893 17.8282 2.38077 18.0681C2.51613 18.1341 2.98025 18.2824 3.4122 18.3978C3.84414 18.5131 4.24261 18.6363 4.2977 18.6715C4.44528 18.7657 4.50204 18.9066 4.71217 19.7008C4.9813 20.7181 5.14371 21.0139 5.62976 21.3722C6.23243 21.8165 6.76166 21.8446 8.03297 21.5001C8.54535 21.3612 8.85282 21.2989 8.93007 21.3183C8.99559 21.3348 9.3368 21.6295 9.7017 21.9849C10.0782 22.3517 10.4523 22.674 10.583 22.7443C11.0191 22.9787 11.5473 23.0584 11.9893 22.9565C12.4428 22.852 12.667 22.6971 13.3874 21.9909C13.869 21.5188 14.1256 21.2991 14.2188 21.2792C14.3113 21.2595 14.5928 21.3153 15.1175 21.4575C15.9784 21.6909 16.3655 21.7388 16.7191 21.6554C17.2973 21.519 17.8288 21.1108 18.0686 20.6189C18.1346 20.4836 18.283 20.0194 18.3983 19.5874C18.5136 19.1554 18.6368 18.7569 18.672 18.7018C18.7661 18.5542 18.9071 18.4974 19.7012 18.2873C20.7184 18.0181 21.0142 17.8557 21.3724 17.3696C21.8166 16.7669 21.8448 16.2376 21.5003 14.9661C21.3614 14.4537 21.2991 14.1462 21.3185 14.0689C21.3349 14.0034 21.6297 13.6621 21.9851 13.2972C22.3518 12.9207 22.674 12.5465 22.7443 12.4158C22.9787 11.9796 23.0584 11.4514 22.9565 11.0093C22.852 10.5558 22.6971 10.3315 21.991 9.61107C21.519 9.12946 21.2993 8.87283 21.2794 8.77962C21.2597 8.68704 21.3155 8.40551 21.4577 7.88076C21.6911 7.01978 21.7389 6.63263 21.6555 6.27902C21.5192 5.70083 21.0967 5.15144 20.612 4.92214C20.4798 4.85958 20.0186 4.71396 19.5871 4.59855C19.1555 4.48309 18.7574 4.36017 18.7023 4.32534C18.5548 4.23208 18.4981 4.09118 18.2878 3.29654C18.0187 2.27925 17.8563 1.98343 17.3702 1.62514C16.7676 1.18092 16.2383 1.15274 14.967 1.49728C14.4498 1.63746 14.1475 1.69854 14.0688 1.67876C14.0015 1.66191 13.6674 1.37288 13.298 1.01212C12.9166 0.639581 12.5512 0.324529 12.4179 0.253114C11.9497 0.00242029 11.4045 -0.0658036 10.9169 0.065251ZM12.3446 2.11449C13.067 2.82315 13.3464 3.00486 13.8574 3.09829C14.2087 3.16256 14.4612 3.12688 15.344 2.88823C16.1484 2.67079 16.3012 2.65394 16.4849 2.76243C16.67 2.87183 16.7042 2.95142 16.9418 3.82462C17.1905 4.73886 17.3047 4.98097 17.6339 5.29243C17.9616 5.60235 18.2184 5.71727 19.1456 5.96869C20.3695 6.30055 20.3808 6.31934 20.068 7.50836C19.8167 8.46371 19.793 8.62538 19.8549 8.96052C19.9539 9.4962 20.117 9.74738 20.8452 10.4855C21.251 10.8968 21.5267 11.2127 21.5456 11.288C21.6136 11.559 21.544 11.6696 20.8774 12.3492C20.1745 13.0659 19.993 13.3458 19.8989 13.8582C19.8331 14.2161 19.864 14.4369 20.1049 15.3273C20.3281 16.1519 20.3443 16.2996 20.2324 16.489C20.1269 16.6676 19.9868 16.727 19.1185 16.961C18.2482 17.1956 18.0141 17.307 17.7056 17.6333C17.3957 17.961 17.2808 18.2179 17.0294 19.1452C16.6975 20.3692 16.6788 20.3805 15.4899 20.0677C14.5346 19.8163 14.373 19.7926 14.0379 19.8545C13.5023 19.9536 13.2511 20.1167 12.5131 20.845C12.1018 21.2508 11.7859 21.5265 11.7107 21.5454C11.4403 21.6133 11.3288 21.5434 10.6499 20.8802C9.93996 20.1868 9.71748 20.0372 9.2263 19.9225C8.82424 19.8286 8.59267 19.8559 7.66272 20.1073C6.85154 20.3266 6.69898 20.3435 6.51509 20.2349C6.32999 20.1256 6.29575 20.046 6.0582 19.1728C5.80951 18.2585 5.69533 18.0164 5.36606 17.705C5.03882 17.3954 4.78865 17.2836 3.85825 17.031C2.63045 16.6976 2.61908 16.6786 2.93199 15.489C3.18333 14.5337 3.20701 14.372 3.14508 14.0369C3.04608 13.5012 2.88296 13.25 2.15478 12.5119C1.74903 12.1006 1.47329 11.7847 1.45442 11.7094C1.38643 11.4384 1.45604 11.3278 2.12256 10.6482C2.82503 9.93192 3.0073 9.65103 3.10055 9.14106C3.16481 8.78964 3.12913 8.53715 2.89051 7.65424C2.6731 6.84971 2.65625 6.6969 2.76473 6.51322C2.87411 6.3281 2.95369 6.29385 3.8268 6.05628C4.74093 5.80757 4.98301 5.69337 5.29443 5.36407C5.60167 5.03917 5.71995 4.77787 5.95066 3.91437C6.18484 3.03789 6.24681 2.89897 6.44579 2.80455C6.65116 2.70706 6.68325 2.71088 7.51042 2.93164C8.41642 3.17348 8.62943 3.20432 8.96454 3.14238C9.49422 3.04445 9.75585 2.87605 10.4656 2.17633C10.8244 1.82249 11.1585 1.50959 11.2079 1.48101C11.2573 1.45238 11.3845 1.43724 11.4905 1.44735C11.6696 1.46438 11.7298 1.51139 12.3446 2.11449ZM10.3765 5.11737C7.70568 5.58869 5.57404 7.73428 5.1163 10.4119C4.77203 12.4261 5.40363 14.4821 6.82017 15.9581C7.36195 16.5226 7.87024 16.9049 8.53151 17.2452C9.49678 17.742 10.4319 17.9705 11.5 17.9705C13.1856 17.9705 14.7422 17.3442 15.9623 16.175C17.2649 14.9268 17.9711 13.2828 17.9711 11.4987C17.9711 8.34996 15.6897 5.64483 12.5866 5.11427C11.9254 5.00124 11.0276 5.0025 10.3765 5.11737ZM12.3646 6.53169C13.3355 6.70099 14.2212 7.14872 14.9596 7.84336C15.9753 8.79895 16.5333 10.0936 16.5329 11.4933C16.5321 14.2916 14.2926 16.5314 11.4946 16.5322C10.1261 16.5326 8.92216 16.0302 7.94866 15.0523C6.96186 14.0611 6.46692 12.8741 6.46692 11.4987C6.46692 10.1325 6.97225 8.91814 7.94601 7.9443C8.68668 7.2035 9.60765 6.71416 10.599 6.53457C11.0568 6.45165 11.8978 6.45025 12.3646 6.53169ZM14.344 8.92569C14.2449 8.99364 13.3005 9.8077 12.2454 10.7347C11.1903 11.6616 10.3111 12.4257 10.2915 12.4327C10.272 12.4396 9.90734 12.0419 9.48123 11.5489C8.98256 10.972 8.65581 10.6314 8.56414 10.5929C7.97158 10.3445 7.35993 10.9314 7.60704 11.5114C7.70995 11.7529 9.73671 14.0606 9.90918 14.1326C10.1207 14.221 10.3741 14.2101 10.546 14.1053C10.6268 14.056 11.4458 13.3545 12.366 12.5465C13.2862 11.7384 14.3249 10.8267 14.6742 10.5203C15.3761 9.90478 15.485 9.74954 15.4415 9.4255C15.3707 8.8976 14.7785 8.62789 14.344 8.92569Z" fill="#EA5C00"/>
</svg>
